<?xml version="1.0" encoding="utf-8"?>
<?xml-stylesheet type="text/xsl" href="rss1.xsl"?>
<rss version="2.0" xmlns:atom="http://www.w3.org/2005/Atom" xmlns:content="http://purl.org/rss/1.0/modules/content/" xmlns:dc="http://purl.org/dc/elements/1.1/" xmlns:media="http://search.yahoo.com/mrss/">
<channel>
 <title>Getty</title>
 <link>http://www.gettyimg.com/</link>
 <atom:link href="http://www.gettyimg.com/" rel="self" type="application/rss+xml" />

 
                <item>
                <title><![CDATA[【Music Videos】Diego Torres - Tratar De Estar Mejor (Clean)]]></title>
                <link><![CDATA[https://sharemania.us/threads/diego-torres-tratar-de-estar-mejor-clean.241054/]]></link>
                <description><![CDATA[<article>
<blockquote class="messageText SelectQuoteContainer ugc baseHtml">
<img src="https://i.ibb.co/G3pVztb/Diego-Torres-Tratar-De-Estar-Mejor-vob-thumbs-2024-03-29-22-15-02.jpg" class="bbCodeImage LbImage" alt="[​IMG]" data-url="https://i.ibb.co/G3pVztb/Diego-Torres-Tratar-De-Estar-Mejor-vob-thumbs-2024-03-29-22-15-02.jpg" style=""> <br>
<br>
<div class="ToggleTriggerAnchor bbCodeSpoilerContainer">
<button type="button" class="button bbCodeSpoilerButton ToggleTrigger Tooltip JsOnly" data-target="> .SpoilerTarget"><span>Spoiler: <span class="SpoilerTitle">MediaInfo</span></span></button>
<div class="SpoilerTarget bbCodeSpoilerText">Diego Torres - Tratar De Estar Mejor.vob<br>
Format : MPEG-PS<br>
File size : 231 MiB<br>
Duration : 3 min 31 s<br>
Overall bit rate mode : Variable<br>
Overall bit rate : 9 165 kb/s<br>
Frame rate : 29.970 FPS<br>
Writing library : encoded by TMPGEnc 3.0 XPress Version. 3.0.4.24<br>
<br>
Video<br>
ID : 224 (0xE0)<br>
Format : MPEG Video<br>
Format version : Version 2<br>
Format profile : Main@Main<br>
Format settings : CustomMatrix / BVOP<br>
Format settings, BVOP : Yes<br>
Format settings, Matrix : Custom<br>
Format settings, GOP : M=3, N=16<br>
Format settings, picture st : Frame<br>
Duration : 3 min 31 s<br>
Bit rate mode : Variable<br>
Bit rate : 8 790 kb/s<br>
Maximum bit rate : 9 200 kb/s<br>
Width : 720 pixels<br>
Height : 480 pixels<br>
Display aspect ratio : 4:3<br>
Frame rate : 29.970 (30000/1001) FPS<br>
Standard : NTSC<br>
Color space : YUV<br>
Chroma subsampling : 4:2:0<br>
Bit depth : 8 bits<br>
Scan type : Interlaced<br>
Scan order : Top Field First<br>
Compression mode : Lossy<br>
Bits/(Pixel*Frame) : 0.849<br>
Time code of first frame : 00:00:00:00<br>
Time code source : Group of pictures header<br>
GOP, Open/Closed : Closed<br>
Stream size : 221 MiB (96%)<br>
Writing library : TMPGEnc 3.0 XPress Version. 3.0.4.24<br>
Color primaries : BT.601 PAL<br>
Transfer characteristics : BT.470 System B/G<br>
Matrix coefficients : FCC 73.682<br>
<br>
Audio<br>
ID : 192 (0xC0)<br>
Format : MPEG Audio<br>
Format version : Version 1<br>
Format profile : Layer 2<br>
Duration : 3 min 31 s<br>
Bit rate mode : Constant<br>
Bit rate : 192 kb/s<br>
Channel(s) : 2 channels<br>
Sampling rate : 48.0 kHz<br>
Frame rate : 41.667 FPS (1152 SPF)<br>
Compression mode : Lossy<br>
Stream size : 4.83 MiB (2%)</div>
</div><br>
<div class="bbCodeBlock bbCodeVfcHH HiddenContent">
<div class="attribution type">Hidden Content:</div>
<blockquote>You must reply before you can see the hidden data contained here.</blockquote>
</div>
<div class="messageTextEndMarker">&nbsp;</div>
</blockquote>
</article>]]></description>
                <author><![CDATA[DJ-RoGeRs-BS]]></author>
                </item>

                </channel></rss>